<?xml version="1.0" encoding="utf-8"?>
<svg height="100%" preserveAspectRatio="xMidYMid meet" version="1.0" viewBox="0 0 300.000000 187.000000" width="100%" xmlns="http://www.w3.org/2000/svg"> <g fill="#080808" stroke="none" transform="translate(0.000000,187.000000) scale(0.100000,-0.100000)"> <path d="M1345 1838 c20 -61 20 -304 1 -365 -4 -13 2 -22 22 -30 51 -23 56 -43 53 -215 l-2 -158 104 0 c86 0 106 3 111 16 19 49 1 297 -31 419 -33 131 -131 281 -217 334 -42 26 -49 26 -41 -1z m123 -124 c87 -115 129 -256 137 -460 4 -87 2 -135 -5 -139 -18 -11 -73 -16 -111 -9 l-37 5 2 122 c3 142 -5 182 -44 219 -22 22 -27 34 -23 55 3 16 6 85 6 156 0 86 4 126 11 124 6 -2 35 -34 64 -73z" fill="#4CAF50"/> <path d="M628 1375 c-116 -42 -198 -146 -198 -247 0 -85 56 -156 175 -224 175 -99 244 -245 134 -283 -72 -25 -153 -6 -213 49 l-43 39 -31 -32 c-18 -18 -32 -39 -32 -46 0 -7 16 -35 35 -61 51 -70 97 -85 250 -84 141 0 208 21 268 80 48 48 60 90 55 183 -7 121 -69 221 -163 265 -30 15 -79 37 -109 51 -81 38 -106 68 -106 126 0 38 4 51 22 63 51 36 125 9 245 -89 l32 -26 35 52 36 53 -22 24 c-92 97 -262 147 -370 107z m227 -50 c69 -32 120 -77 112 -98 -13 -33 -36 -29 -104 19 -58 41 -77 49 -125 52 -53 4 -59 2 -88 -26 -26 -26 -30 -38 -30 -83 0 -77 28 -108 148 -166 53 -25 110 -55 125 -65 56 -40 107 -155 107 -242 0 -58 -32 -116 -82 -149 -61 -39 -109 -50 -223 -51 -83 -1 -108 3 -147 21 -42 19 -88 69 -88 96 0 21 32 15 79 -14 93 -58 222 -51 262 15 38 63 17 132 -69 219 -31 31 -60 57 -65 57 -19 0 -147 92 -165 118 -55 79 -47 164 23 236 45 47 91 75 140 86 50 11 137 0 190 -25z" fill="#4CAF50"/> <path d="M2185 1377 c-102 -42 -177 -119 -195 -200 -25 -109 21 -184 160 -267 143 -85 205 -168 186 -246 -4 -16 -19 -30 -41 -40 -71 -29 -151 -13 -218 46 l-45 40 -31 -35 c-17 -20 -31 -39 -31 -43 0 -3 15 -28 33 -54 44 -66 94 -89 207 -96 166 -9 299 38 347 123 30 53 32 171 4 245 -35 92 -78 133 -205 193 -126 61 -156 89 -156 148 0 50 27 79 75 79 45 0 83 -19 162 -82 l62 -49 35 48 c20 26 36 53 36 59 0 15 -106 92 -159 116 -54 25 -183 33 -226 15z m230 -57 c70 -33 110 -72 101 -95 -11 -29 -35 -27 -83 8 -80 58 -111 70 -167 64 -66 -6 -96 -38 -96 -105 0 -78 33 -113 165 -176 82 -40 120 -64 144 -92 58 -71 83 -172 64 -264 -9 -49 -74 -107 -142 -127 -60 -18 -202 -23 -264 -10 -49 10 -117 71 -117 103 0 31 11 30 60 -2 22 -15 64 -32 93 -39 98 -23 195 23 198 93 2 52 -3 67 -37 118 -33 49 -70 80 -204 167 -122 79 -146 192 -63 291 88 105 216 129 348 66z" fill="#4CAF50"/> <path d="M1770 1186 l0 -196 -222 0 -223 0 6 97 c4 54 7 140 8 191 l1 93 -87 -3 -88 -3 0 -425 0 -425 84 -3 83 -3 -3 103 c-2 57 -2 150 -1 208 l2 105 215 0 215 0 0 -207 0 -208 33 0 32 0 3 268 c3 231 16 542 24 584 2 9 -10 14 -39 16 l-43 3 0 -195z m-472 -20 c2 -137 6 -173 18 -187 14 -16 14 -20 -3 -45 -16 -25 -18 -50 -18 -200 0 -95 -2 -174 -5 -177 -3 -2 -19 -7 -37 -10 -61 -12 -60 -17 -61 393 0 414 -2 404 67 398 l36 -3 3 -169z" fill="#4CAF50"/> <path d="M1914 824 c-1 -69 1 -122 5 -117 3 4 17 20 29 34 l24 27 -23 91 c-12 50 -25 91 -28 91 -3 0 -7 -57 -7 -126z" fill="#4CAF50"/> <path d="M1411 668 c4 -232 2 -236 -174 -240 l-99 -3 -29 33 c-19 21 -29 43 -29 65 l0 32 -30 -32 c-35 -38 -37 -59 -10 -144 43 -141 146 -266 268 -326 62 -31 86 -37 157 -41 235 -12 438 148 500 395 l16 62 -33 45 c-18 24 -35 45 -38 45 -4 1 -4 -14 -2 -32 8 -69 -78 -118 -166 -95 -52 14 -65 45 -64 152 l0 92 -29 11 c-34 13 -49 47 -49 109 l0 44 -96 0 -96 0 3 -172z m145 133 c6 0 14 -23 18 -49 5 -36 14 -56 36 -77 28 -27 30 -34 30 -99 0 -88 20 -132 75 -163 62 -35 132 -26 186 24 35 32 42 18 24 -50 -41 -156 -145 -267 -310 -327 -80 -30 -116 -33 -189 -16 -146 34 -252 120 -321 260 -20 40 -39 93 -42 117 -5 44 -4 44 14 23 37 -44 79 -56 179 -52 101 3 129 16 170 76 19 28 21 41 17 178 -3 134 -2 149 14 155 14 5 61 5 99 0z" fill="#4CAF50"/> </g> </svg>